<?xml version="1.0" encoding="utf-8"?>
<!-- Generator: Adobe Illustrator 17.1.0, SVG Export Plug-In . SVG Version: 6.00 Build 0)  -->
<!DOCTYPE svg PUBLIC "-//W3C//DTD SVG 1.1//EN" "http://www.w3.org/Graphics/SVG/1.1/DTD/svg11.dtd">
<svg version="1.1" id="Calque_1" xmlns="http://www.w3.org/2000/svg" xmlns:xlink="http://www.w3.org/1999/xlink" x="0px" y="0px"
	 width="423.8px" height="407.5px" viewBox="0 0 423.8 407.5" enable-background="new 0 0 423.8 407.5" xml:space="preserve">
<g>
	<g>
		<path fill="#3F3F3E" d="M35,269.1h14.7v35.1h0.7l34.3-35.1h19.9l-38.7,38.3l41.3,44.6H86.5l-35.9-40.7h-0.8V352H35V269.1z"/>
		<path fill="#3F3F3E" d="M135.8,294.4c17,0,30.6,11.8,30.6,29.5c0,17.7-13.6,29.5-30.6,29.5s-30.5-11.8-30.5-29.5
			C105.2,306.2,118.8,294.4,135.8,294.4z M135.8,340.7c10.3,0,16.5-8.1,16.5-16.9c0-8.8-6.2-16.9-16.5-16.9s-16.5,8.1-16.5,16.9
			C119.3,332.7,125.5,340.7,135.8,340.7z"/>
		<path fill="#3F3F3E" d="M176.3,263.5h14V352h-14V263.5z"/>
		<path fill="#3F3F3E" d="M238.7,344.2h-0.4c-4,6.3-10.5,9.1-18,9.1c-10.4,0-20.5-5.7-20.5-16.9c0-18.3,21.3-19.5,35.3-19.5h3.5
			v-1.5c0-6.9-5.4-10.5-12.9-10.5c-5.9,0-11.2,2.3-15,5.9l-7.4-7.4c6.2-6.3,15-9,23.9-9c24,0,24,17.3,24,25.3V352h-12.6V344.2z
			 M237.8,326.8h-2.9c-7.7,0-21.1,0.6-21.1,8.7c0,5.2,5.3,7.4,9.8,7.4c9.6,0,14.2-5,14.2-12.9V326.8z"/>
		<path fill="#3F3F3E" d="M260.5,263.5h14v39.4h0.4c2.9-3.6,8.5-8.5,19.1-8.5c16,0,27.2,12.9,27.2,29.5c0,16.6-10.4,29.5-27.7,29.5
			c-7.8,0-15.2-3-19.3-9.8h-0.2v8.4h-13.3V263.5z M290.6,307c-10.3,0-16.5,8.1-16.5,16.9c0,8.8,6.2,16.9,16.5,16.9
			s16.5-8.1,16.5-16.9C307.1,315.1,300.9,307,290.6,307z"/>
		<path fill="#3F3F3E" d="M331,295.8h14v8.9h0.2c3-6.4,9.2-10.3,16.6-10.3c1.8,0,3.4,0.4,5,0.8v13.6c-2.3-0.6-4.6-1.1-6.8-1.1
			c-13.2,0-15.1,11.1-15.1,14.2V352h-14V295.8z"/>
		<path fill="#3F3F3E" d="M383.3,268.3c5.2,0,9.1,3.6,9.1,8.4c0,4.8-4,8.4-9.1,8.4s-8.9-4-8.9-8.4
			C374.4,272.3,378.2,268.3,383.3,268.3z M376.4,295.8h14V352h-14V295.8z"/>
	</g>
	<g>
		<path fill="#36A9E1" d="M150.3,254.2l0.6-7.5c0.2-2,4.4-47.6,41.3-86c-21.9-16.6-37.5-44.4-47.8-84.8l-2.2-8.7l8.7,1.8
			c2.8,0.6,66,14.3,88.9,58.1c1.6-0.7,3.2-1.4,4.9-2.1c10.9-4.6,21.5-6.9,31.3-6.9c32.8,0,47,24.9,47.6,25.9l13,23.3l-21.2-16.2
			c-1.2-0.9-5-3.1-8.4-3.1c-1.6,0-3.6,0.4-5.6,3.3c-0.8,1.1-3.7,4-5.3,5.6c-18.3,17.8-33.5,25.7-49.2,25.7c-0.6,0-1.2,0-1.8,0
			c-14.4,53.4-84.4,69.1-87.4,69.8L150.3,254.2z M201.7,166.9c-26.3,26.6-35.4,58-38.4,72.6c17.9-5.6,60.1-22.2,70.6-58.3
			c-9.3-2.4-18.6-7-29.4-12.7C203.6,168,202.7,167.4,201.7,166.9z M244.3,137.5c3.6,10.7,4.6,22.2,3,34.3
			c12.5-0.2,25.2-7.1,41.1-22.6c1.1-1,3.4-3.4,4-4.1c2.7-3.9,6.2-6.4,10.2-7.4c-6.1-4.4-14.8-8.2-26.5-8.2c-8.4,0-17.5,2-27,6
			C247.5,136,245.9,136.7,244.3,137.5z M210.3,158.9c9.7,5.1,18.1,9.2,25.9,11.3c1.3-9.8,0.7-19.1-2-27.8
			C225.6,147.2,217.6,152.7,210.3,158.9z M157.8,82.4c9.8,33.7,23.8,56.8,42.6,70.4c8.9-7.9,18.8-14.9,29.6-20.7
			C214.1,102.3,175.4,87.7,157.8,82.4z"/>
	</g>
</g>
</svg>
